<?xml version="1.0" encoding="UTF-8"?>
<svg id="Camada_2" data-name="Camada 2" xmlns="http://www.w3.org/2000/svg" viewBox="0 0 873.05 992.15">
  <g id="Camada_1-2" data-name="Camada 1">
    <g>
      <path d="m707.77,219.19c-12.92-5.39-25.6-9.69-37.28-15.87-9.94-5.26-18.46-4.25-28.17.01-32.71,14.36-65.64,28.23-98.53,42.18-35.01,14.86-70.08,29.59-105.11,44.41-17.07,7.22-34.08,14.58-51.16,21.78-24.9,10.49-49.83,20.89-74.75,31.32-1.22.51-2.99.64-3.23,2.09-.32,1.92,1.67,2.39,2.94,3.08,19.2,10.53,39.91,16.42,61.43,19.72,15.89,2.44,31.84,3.41,47.91,2.09,19.46-1.59,37.63-7.28,55.48-15.15,34.43-15.19,69.24-29.5,103.89-44.18,19.73-8.36,39.44-16.75,59.17-25.1,35.56-15.04,71.14-30.04,106.7-45.1,17.95-7.6,35.71-15.72,53.86-22.81,13.86-5.41,27.23-11.92,41.12-17.2,7.19-2.73,14.38-2.58,21.24,1.21,6.33,3.49,9.74,8.14,9.73,16.16-.19,193.19-.23,386.39.04,579.58.02,14.85-3.49,17.32-15.44,22.18-17.36,7.06-34.38,14.87-51.67,22.05-34.58,14.36-68.93,29.28-103.43,43.81-35.21,14.83-70.33,29.85-105.56,44.64-34.89,14.65-69.86,29.1-104.44,44.48-32.51,14.46-66.71,19.5-101.89,16.88-33.1-2.46-65.46-8.85-95.06-24.91-12.86-6.98-25.79-14.08-34.78-26.31-7.09-9.65-10.76-20.25-10.76-32.36.06-189.12-.05-378.25.12-567.37.02-19.6,10.96-33.53,27.52-42.51,30.62-16.6,63.76-27.63,95.45-41.91,19-8.56,38.23-16.63,57.52-24.49,35.58-14.5,70.73-29.98,106.15-44.84,34.88-14.64,69.74-29.3,104.54-44.11,10.46-4.45,21.18-8.4,31.45-13.25,13.22-6.25,33.96,4.2,34.75,21.08,1.05,22.56.26,45.21.26,68.69Z" fill="white"/>
      <path d="m58.66,217.18c4.94,5.03,11.6,6.99,17.7,9.47,29.04,11.79,59.24,16.68,90.66,15.3,19.26-.85,37.32-5.42,54.84-13.05,17.7-7.71,35.46-15.3,53.28-22.72,34.39-14.32,68.6-29.04,102.92-43.52,35.57-15.01,71.15-29.98,106.63-45.19,34.41-14.75,69-29.11,103.5-43.66,13.81-5.82,22.43-4.39,31.6,5.25,4.08,4.28,5.25,9.76,6.51,15.22.77,3.34-1.96,3.73-3.98,4.59-19.52,8.37-39.05,16.74-58.59,25.06-42.28,17.99-84.49,36.14-126.87,53.87-34.36,14.38-68.71,28.8-102.86,43.69-21.93,9.56-44.59,17.54-66.18,27.78-32.77,15.53-57.93,38.38-64.97,76.18-1.52,8.16-2.09,16.45-2.09,24.79.05,166.86.05,333.72.06,500.58,0,8.97,0,9.03-8.92,10.45-22.08,3.52-44.09,3.33-66.33.6-21.98-2.7-43.27-7.67-63.87-15.49-16.36-6.21-30.98-15.39-44.25-27.07C5.35,808.66.08,795.77.08,780.06.11,592.08.16,404.09,0,216.11c-.01-17.19,6.34-30.18,19.96-40.72,12.96-10.03,27.9-15.73,42.66-21.8,17.85-7.34,35.5-15.15,53.27-22.65,35.75-15.09,71.37-30.51,107.26-45.27,17.69-7.28,35.14-15.09,52.78-22.49,42.71-17.91,85.4-35.85,128.08-53.81,5.7-2.4,11.16-5.48,17.01-7.36,13.31-4.27,25.69-2.16,32.84,10.33,2.74,4.79,3.96,10.1,3.98,15.58.08,19.19-.08,38.37.12,57.56.04,4.4-.93,5.37-5.1,3.58-14.18-6.1-28.47-11.95-42.72-17.9-2.56-1.07-4.82-1.2-7.65-.03-24.99,10.27-49.81,20.95-74.65,31.54-29.3,12.48-58.72,24.7-87.98,37.28-33.16,14.26-66.44,28.24-99.68,42.31-23.28,9.86-46.6,19.63-69.86,29.55-3.85,1.64-8.24,2.14-11.67,5.38Z" fill="white"/>
    </g>
  </g>
</svg>