<svg width="20" height="20" viewBox="0 0 20 20" fill="none" xmlns="http://www.w3.org/2000/svg">
<path d="M16.4917 12.4417C14.775 14.15 12.3167 14.675 10.1583 14L6.23333 17.9167C5.95 18.2083 5.39166 18.3833 4.99166 18.325L3.17499 18.075C2.57499 17.9917 2.01666 17.425 1.92499 16.825L1.67499 15.0083C1.61666 14.6083 1.80833 14.05 2.08333 13.7667L5.99999 9.85C5.33333 7.68333 5.85 5.225 7.56666 3.51667C10.025 1.05833 14.0167 1.05833 16.4833 3.51667C18.95 5.975 18.95 9.98333 16.4917 12.4417Z" stroke="white" stroke-width="1.5" stroke-miterlimit="10" stroke-linecap="round" stroke-linejoin="round"/>
<path d="M5.74167 14.575L7.65834 16.4917" stroke="white" stroke-width="1.5" stroke-miterlimit="10" stroke-linecap="round" stroke-linejoin="round"/>
<path d="M12.0833 9.16667C12.7737 9.16667 13.3333 8.60702 13.3333 7.91667C13.3333 7.22631 12.7737 6.66667 12.0833 6.66667C11.393 6.66667 10.8333 7.22631 10.8333 7.91667C10.8333 8.60702 11.393 9.16667 12.0833 9.16667Z" stroke="white" stroke-width="1.5" stroke-linecap="round" stroke-linejoin="round"/>
</svg>
